<svg width="564" height="340" viewBox="0 0 564 340" fill="none" xmlns="http://www.w3.org/2000/svg">
<g clip-path="url(#clip0_11_516)">
<path d="M29.4262 339.24C29.3884 339.074 25.7394 322.39 33.1917 308.533C40.6439 294.676 56.5514 288.565 56.7112 288.505L57.4382 288.231L57.61 288.991C57.6477 289.158 61.2967 305.842 53.8445 319.699C46.3926 333.555 30.4848 339.666 30.3249 339.727L29.5976 340L29.4262 339.24ZM56.4412 290.085C53.2548 291.46 40.679 297.475 34.3849 309.178C28.0903 320.882 29.9894 334.723 30.595 338.146C33.78 336.775 46.3509 330.77 52.6512 319.054C58.9456 307.35 57.0471 293.51 56.4412 290.085Z" fill="#F1F1F1"/>
<path d="M48.1494 314.838C34.7573 322.917 29.5996 338.963 29.5996 338.963C29.5996 338.963 46.1547 341.911 59.5468 333.833C72.9389 325.754 78.0966 309.708 78.0966 309.708C78.0966 309.708 61.5415 306.76 48.1494 314.838Z" fill="#F1F1F1"/>
<path d="M250.955 185.333C251.16 184.276 251.13 183.187 250.869 182.143C250.608 181.098 250.122 180.124 249.445 179.289C248.768 178.453 247.916 177.777 246.95 177.307C245.984 176.837 244.927 176.585 243.853 176.569L237.652 160.932L227.255 162.393L236.322 184.353C236.415 186.163 237.167 187.876 238.435 189.167C239.704 190.459 241.401 191.239 243.205 191.36C245.008 191.481 246.794 190.934 248.222 189.823C249.651 188.712 250.623 187.115 250.955 185.333Z" fill="#9F616A"/>
<path d="M231.801 179.838L228.58 172.136L208.505 133.822L209.596 62.9262L209.806 62.8983C222.651 61.1967 231.343 120.541 231.706 123.068L244.39 166.562L247.41 176.149L231.801 179.838Z" fill="#0C5CE1"/>
<path d="M200.955 329.333L210.716 329.332L215.359 291.584L200.953 291.585L200.955 329.333Z" fill="#9F616A"/>
<path d="M198.465 326.138L217.687 326.137H217.688C220.937 326.137 224.053 327.431 226.35 329.734C228.647 332.038 229.938 335.162 229.938 338.419V338.818L198.466 338.819L198.465 326.138Z" fill="#2F2E41"/>
<path d="M111.21 314.422L119.219 320.017L144.553 291.71L132.734 283.452L111.21 314.422Z" fill="#9F616A"/>
<path d="M110.989 310.374L126.76 321.392L126.761 321.393C129.426 323.255 131.244 326.103 131.816 329.31C132.387 332.516 131.665 335.819 129.807 338.492L129.58 338.819L103.758 320.778L110.989 310.374Z" fill="#2F2E41"/>
<path d="M195.591 320.46L195.169 249.648L189.028 205.121L177.578 244.278L177.556 244.31L136.062 304.709L119.917 296.507L120.005 296.296C120.992 293.943 144.242 238.678 150.491 238.678C151.037 238.716 151.584 238.621 152.085 238.4C152.586 238.179 153.026 237.84 153.367 237.411C155.201 234.955 153.707 229.744 153.692 229.692C151.903 222.254 156.401 219.721 157.297 219.298L159.706 169.423L159.956 169.441L225.281 174.035L222.54 236.391L216.645 318.091L216.443 318.114L195.591 320.46Z" fill="#2F2E41"/>
<path d="M226.279 185.086L225.996 185.063L155.741 179.385L155.915 156.078L159.353 95.2216L159.373 95.1794L173.376 64.6972L183.303 60.1903L197.786 59.4261L197.821 59.435L211.039 62.7183L224.788 161.682L226.279 185.086Z" fill="#0C5CE1"/>
<path d="M200.055 51.6141C209.019 46.701 212.313 35.4321 207.413 26.4444C202.513 17.4566 191.274 14.1535 182.31 19.0667C173.346 23.9798 170.052 35.2487 174.952 44.2364C179.852 53.2242 191.091 56.5273 200.055 51.6141Z" fill="#9F616A"/>
<path d="M172.58 39.996V32.7698C172.58 32.7698 166.768 25.9065 173.162 24.1776C173.162 24.1776 174.905 6.88877 190.016 14.9569C190.016 14.9569 210.94 11.4991 208.615 23.6013C208.615 23.6013 213.846 20.4418 212.102 28.5099L208.73 41.5063C208.73 41.5063 210.359 32.9213 205.128 31.7686L202.222 30.0398C202.222 30.0398 194.085 38.1079 181.88 28.3109C181.88 28.3109 176.649 27.0591 177.23 32.2457C177.811 37.4324 172.58 39.996 172.58 39.996Z" fill="#2F2E41"/>
<path d="M189.257 167.681C189.269 166.605 189.045 165.539 188.601 164.558C188.158 163.578 187.505 162.707 186.689 162.007C185.874 161.307 184.915 160.794 183.88 160.506C182.846 160.218 181.761 160.16 180.702 160.338L171.802 146.07L161.835 149.378L174.686 169.35C175.101 171.114 176.147 172.664 177.627 173.706C179.106 174.748 180.915 175.211 182.711 175.005C184.507 174.799 186.165 173.94 187.372 172.59C188.578 171.24 189.249 169.494 189.257 167.681Z" fill="#9F616A"/>
<path d="M166.271 163.184L150.17 130.408L150.184 130.328C150.249 129.965 156.73 93.8829 161.687 80.6202C166.675 67.2735 173.504 64.5938 173.792 64.4863L173.936 64.4325L180.058 70.3207L171.577 127.079L180.719 154.452L166.271 163.184Z" fill="#0C5CE1"/>
<path d="M564 0H532.825V31.2577H564V0Z" fill="#F1F1F1"/>
<path d="M320.022 121.633H288.847V152.891H320.022V121.633Z" fill="#F1F1F1"/>
<path d="M306.345 139.194H552.813V14.0891H306.345V139.194Z" fill="white"/>
<path d="M554.846 141.232H304.312V12.0504H554.846V141.232ZM308.378 137.155H550.78V16.1275H308.378V137.155Z" fill="#E5E5E5"/>
<path d="M525.559 57.9735H335.929V64.2788H525.559V57.9735Z" fill="#E5E5E5"/>
<path d="M525.559 73.2646H335.929V79.57H525.559V73.2646Z" fill="#E5E5E5"/>
<path d="M525.559 95.8426H490.317V101.314H525.559V95.8426Z" fill="#0C5CE1"/>
<path d="M258.888 339.973H0.677717C0.497975 339.973 0.325595 339.901 0.198498 339.774C0.0714016 339.646 0 339.473 0 339.293C0 339.113 0.0714016 338.94 0.198498 338.813C0.325595 338.685 0.497975 338.614 0.677717 338.614H258.888C259.068 338.614 259.24 338.685 259.367 338.813C259.494 338.94 259.565 339.113 259.565 339.293C259.565 339.473 259.494 339.646 259.367 339.774C259.24 339.901 259.068 339.973 258.888 339.973Z" fill="#CBCBCB"/>
</g>
<defs>
<clipPath id="clip0_11_516">
<rect width="564" height="340" fill="white"/>
</clipPath>
</defs>
</svg>
